<?xml version="1.0" encoding="utf-8"?>
<!-- Generator: Adobe Illustrator 21.1.0, SVG Export Plug-In . SVG Version: 6.00 Build 0)  -->
<svg version="1.1" id="Layer_1" xmlns="http://www.w3.org/2000/svg" xmlns:xlink="http://www.w3.org/1999/xlink" x="0px" y="0px"
	 viewBox="0 0 50 50" style="enable-background:new 0 0 50 50;" xml:space="preserve">
<style type="text/css">
	.st0{fill:#FFFFFF;}
</style>
<g>
	<polygon class="st0" points="20.1,22.1 14,22.1 14,19 18.4,19 18.4,17.3 14,17.3 14,14.2 20.1,14.2 20.1,12.5 12.1,12.5 12.1,23.8 
		20.1,23.8 	"/>
	<path class="st0" d="M20,27c-0.6-0.6-1.3-0.8-2.6-0.8h0h-1.9h0c-1.3,0-2,0.2-2.6,0.8c-0.6,0.6-0.8,1.3-0.8,2.6v4.5
		c0,1.3,0.2,2,0.8,2.6c0.6,0.6,1.3,0.8,2.6,0.8h0h1.9h0c1.3,0,2-0.2,2.6-0.8c0.6-0.6,0.8-1.3,0.8-2.6v-4.5
		C20.8,28.3,20.6,27.6,20,27z M19,33.8c0,1.1-0.1,1.4-0.3,1.7c-0.3,0.3-0.6,0.3-1.7,0.3h-1c-1.1,0-1.4-0.1-1.7-0.3
		c-0.3-0.3-0.3-0.6-0.3-1.7v-3.9c0-1.1,0.1-1.4,0.3-1.7c0.3-0.3,0.6-0.3,1.7-0.3h1c1.1,0,1.4,0.1,1.7,0.3c0.3,0.3,0.3,0.6,0.3,1.7
		L19,33.8L19,33.8z"/>
	<path class="st0" d="M29.5,13.3c-0.6-0.6-1.3-0.8-2.6-0.8h0h-5v11.3h5h0c1.3,0,2-0.2,2.6-0.8c0.6-0.6,0.8-1.3,0.8-2.6v-4.5
		C30.3,14.6,30.1,13.8,29.5,13.3z M28.5,20.1c0,1.1-0.1,1.4-0.3,1.7c-0.3,0.3-0.6,0.3-1.7,0.3h-2.7v-7.9h2.7c1.1,0,1.4,0.1,1.7,0.3
		c0.3,0.3,0.3,0.6,0.3,1.7V20.1z"/>
	<polygon class="st0" points="38.9,14.2 38.9,12.5 31.7,12.5 31.7,14.2 34.4,14.2 34.4,22.1 31.7,22.1 31.7,23.8 38.9,23.8 
		38.9,22.1 36.2,22.1 36.2,14.2 	"/>
	<path class="st0" d="M48.6,17.6L46.5,13c-0.1-0.3-0.4-0.5-0.7-0.5c0,0-2.3,0-2.3,0c-0.3,0-0.6,0.2-0.7,0.5l-2.1,4.6
		c-0.1,0.2-0.2,0.5-0.2,0.8v5.4h1.8v-3.1H47v3.1h1.8v-5.4C48.8,18.1,48.7,17.8,48.6,17.6z M47,19h-4.7v-0.7l1.9-4.1h0.9l1.9,4.1V19z
		"/>
	<polygon class="st0" points="29.2,31.9 24.4,26.2 22.6,26.2 22.6,37.5 24.4,37.5 24.4,28.7 29.2,34.4 29.2,37.5 31,37.5 31,26.2 
		29.2,26.2 	"/>
	<path class="st0" d="M46.2,31.1c-1.3-0.6-2.7-1.1-2.7-2c0-0.6,0.5-1.2,1.1-1.2h2.5c0.6,0,1.1,0.5,1.1,1.1v0.3H50v-0.2
		c0-1.6-1.3-2.9-2.9-2.9h-2.4c-1.6,0-2.9,1.3-2.9,2.9c0,2,2.1,2.9,3.8,3.6c1.3,0.6,2.7,1.1,2.7,2c0,0.6-0.5,1.2-1.1,1.2h-2.5
		c-0.6,0-1.1-0.5-1.1-1.1v-0.3h-1.8v0.2c0,1.6,1.3,2.9,2.9,2.9h2.4c1.6,0,2.9-1.3,2.9-2.9C50,32.6,47.9,31.8,46.2,31.1z"/>
	<polygon class="st0" points="36.4,31.8 41.3,26.2 38.9,26.2 35,31 35,26.2 33.2,26.2 33.2,37.5 35,37.5 35,32.7 39.1,37.5 
		41.5,37.5 	"/>
	<polyline class="st0" points="8.4,15.3 5.8,19 4.4,19 1.8,15.3 1.8,23.8 0,23.8 0,12.5 1.8,12.5 5.1,17.2 8.4,12.5 10.2,12.5 
		10.2,23.8 8.4,23.8 8.4,15.3 	"/>
	<polyline class="st0" points="8.4,29.1 5.8,32.7 4.4,32.7 1.8,29.1 1.8,37.5 0,37.5 0,26.2 1.8,26.2 5.1,30.9 8.4,26.2 10.2,26.2 
		10.2,37.5 8.4,37.5 8.4,29.1 	"/>
</g>
</svg>
